<svg width="45" height="45" viewBox="0 0 45 45" fill="none" xmlns="http://www.w3.org/2000/svg">
<circle opacity="0.12" cx="22.5" cy="22.5" r="20.2832" stroke="#01008E" stroke-width="4.4335"/>
<mask id="path-2-inside-1_1306_701" fill="white">
<path d="M22.823 2.24505C22.8428 1.00672 23.8654 0.00731663 25.0956 0.150157C29.977 0.716933 34.562 2.87059 38.127 6.31217C42.2323 10.2752 44.6785 15.65 44.9705 21.3486C45.2625 27.0472 43.3785 32.6438 39.6998 37.0058C36.0211 41.3677 30.8225 44.169 25.1564 44.8426C19.4902 45.5163 13.7798 44.012 9.18087 40.6342C4.58198 37.2565 1.43822 32.2576 0.385921 26.6494C-0.666376 21.0412 0.451409 15.2427 3.51302 10.4275C6.17176 6.24598 10.124 3.07732 14.7364 1.3818C15.8988 0.954486 17.1272 1.68626 17.4368 2.88544C17.7463 4.08461 17.0178 5.29471 15.8663 5.75074C12.3525 7.14234 9.34581 9.61281 7.29772 12.834C4.84638 16.6893 3.95141 21.332 4.79395 25.8223C5.63649 30.3126 8.15361 34.315 11.8358 37.0195C15.518 39.724 20.0902 40.9284 24.6269 40.389C29.1636 39.8497 33.3259 37.6068 36.2713 34.1143C39.2168 30.6219 40.7252 26.1408 40.4914 21.5781C40.2576 17.0154 38.299 12.712 35.0121 9.53891C32.2658 6.88779 28.7637 5.19117 25.0215 4.66224C23.7953 4.48891 22.8033 3.48338 22.823 2.24505Z"/>
</mask>
<path d="M22.823 2.24505C22.8428 1.00672 23.8654 0.00731663 25.0956 0.150157C29.977 0.716933 34.562 2.87059 38.127 6.31217C42.2323 10.2752 44.6785 15.65 44.9705 21.3486C45.2625 27.0472 43.3785 32.6438 39.6998 37.0058C36.0211 41.3677 30.8225 44.169 25.1564 44.8426C19.4902 45.5163 13.7798 44.012 9.18087 40.6342C4.58198 37.2565 1.43822 32.2576 0.385921 26.6494C-0.666376 21.0412 0.451409 15.2427 3.51302 10.4275C6.17176 6.24598 10.124 3.07732 14.7364 1.3818C15.8988 0.954486 17.1272 1.68626 17.4368 2.88544C17.7463 4.08461 17.0178 5.29471 15.8663 5.75074C12.3525 7.14234 9.34581 9.61281 7.29772 12.834C4.84638 16.6893 3.95141 21.332 4.79395 25.8223C5.63649 30.3126 8.15361 34.315 11.8358 37.0195C15.518 39.724 20.0902 40.9284 24.6269 40.389C29.1636 39.8497 33.3259 37.6068 36.2713 34.1143C39.2168 30.6219 40.7252 26.1408 40.4914 21.5781C40.2576 17.0154 38.299 12.712 35.0121 9.53891C32.2658 6.88779 28.7637 5.19117 25.0215 4.66224C23.7953 4.48891 22.8033 3.48338 22.823 2.24505Z" stroke="#01008E" stroke-width="8.86699" stroke-linecap="round" mask="url(#path-2-inside-1_1306_701)"/>
<path d="M19.75 0.145874L18.2917 0.913418V1.22044H21.2084V0.913418L19.75 0.145874ZM18.2917 3.36956H21.2084V2.90903H18.2917V3.36956ZM19.5198 1.52745V2.60201H19.9803V1.52745H19.5198ZM18.5987 1.52745V2.60201H19.0592V1.52745H18.5987Z" fill="#54C68F"/>
<path d="M20.7708 1.3125C21.1736 1.3125 21.5 1.63886 21.5 2.04167C21.5 2.44447 21.1736 2.77083 20.7708 2.77083C20.368 2.77083 20.0417 2.44447 20.0417 2.04167C20.0417 1.63886 20.368 1.3125 20.7708 1.3125ZM20.6859 1.73471L20.9078 1.94758H20.371C20.3319 1.94758 20.3004 1.97904 20.3004 2.01815V2.06519C20.3004 2.10429 20.3319 2.13575 20.371 2.13575H20.9078L20.6859 2.34862C20.6573 2.37597 20.6568 2.42154 20.6847 2.44947L20.717 2.48152C20.7447 2.50916 20.7894 2.50916 20.8167 2.48152L21.2069 2.09165C21.2345 2.06401 21.2345 2.01932 21.2069 1.99198L20.8167 1.60152C20.7891 1.57388 20.7444 1.57388 20.717 1.60152L20.6847 1.63357C20.6568 1.66179 20.6573 1.70737 20.6859 1.73471Z" fill="#76D2A5"/>
</svg>
